<svg id="Logo_Passion" xmlns="http://www.w3.org/2000/svg" xmlns:xlink="http://www.w3.org/1999/xlink" viewBox="79 10 225 90">
  <defs>
    <style>
      .cls-1 {
        fill: #fff;
      }

      .cls-2 {
        fill: #00c85d;
      }

      .cls-3 {
        fill: #ffbd07;
      }

      .cls-4 {
        fill: #ef3f61;
      }

      .cls-5 {
        filter: url(#Path_3170);
      }

      .cls-6 {
        filter: url(#Path_3169);
      }

      .cls-7 {
        filter: url(#Path_3168);
      }

      .cls-8 {
        filter: url(#Path_3167);
      }

      .cls-9 {
        filter: url(#Path_3166);
      }

      .cls-10 {
        filter: url(#Path_3165);
      }

      .cls-11 {
        filter: url(#Path_3164);
      }

      .cls-12 {
        filter: url(#Path_3163);
      }

      .cls-13 {
        filter: url(#Path_3162);
      }

      .cls-14 {
        filter: url(#Path_3161);
      }

      .cls-15 {
        filter: url(#Path_3160);
      }

      .cls-16 {
        filter: url(#Path_3159);
      }

      .cls-17 {
        filter: url(#Rectangle_157);
      }
    </style>
    <filter id="Rectangle_157" x="79" y="10" width="90" height="90" filterUnits="userSpaceOnUse">
      <feOffset dy="3" input="SourceAlpha"/>
      <feGaussianBlur stdDeviation="3" result="blur"/>
      <feFlood flood-opacity="0.161"/>
      <feComposite operator="in" in2="blur"/>
      <feComposite in="SourceGraphic"/>
    </filter>
    <filter id="Path_3159" x="106.557" y="38.062" width="43.069" height="31.215" filterUnits="userSpaceOnUse">
      <feOffset dy="3" input="SourceAlpha"/>
      <feGaussianBlur stdDeviation="3" result="blur-2"/>
      <feFlood flood-opacity="0.161"/>
      <feComposite operator="in" in2="blur-2"/>
      <feComposite in="SourceGraphic"/>
    </filter>
    <filter id="Path_3160" x="92.556" y="52.517" width="33.453" height="34.329" filterUnits="userSpaceOnUse">
      <feOffset dy="3" input="SourceAlpha"/>
      <feGaussianBlur stdDeviation="3" result="blur-3"/>
      <feFlood flood-opacity="0.161"/>
      <feComposite operator="in" in2="blur-3"/>
      <feComposite in="SourceGraphic"/>
    </filter>
    <filter id="Path_3161" x="92.254" y="68.06" width="18.544" height="18.786" filterUnits="userSpaceOnUse">
      <feOffset dy="3" input="SourceAlpha"/>
      <feGaussianBlur stdDeviation="3" result="blur-4"/>
      <feFlood flood-opacity="0.161"/>
      <feComposite operator="in" in2="blur-4"/>
      <feComposite in="SourceGraphic"/>
    </filter>
    <filter id="Path_3162" x="106.164" y="51.307" width="20.208" height="19.361" filterUnits="userSpaceOnUse">
      <feOffset dy="3" input="SourceAlpha"/>
      <feGaussianBlur stdDeviation="3" result="blur-5"/>
      <feFlood flood-opacity="0.161"/>
      <feComposite operator="in" in2="blur-5"/>
      <feComposite in="SourceGraphic"/>
    </filter>
    <filter id="Path_3163" x="91.679" y="67.001" width="18.847" height="19.361" filterUnits="userSpaceOnUse">
      <feOffset dy="3" input="SourceAlpha"/>
      <feGaussianBlur stdDeviation="3" result="blur-6"/>
      <feFlood flood-opacity="0.161"/>
      <feComposite operator="in" in2="blur-6"/>
      <feComposite in="SourceGraphic"/>
    </filter>
    <filter id="Path_3164" x="101.464" y="49.13" width="26.026" height="21.689" filterUnits="userSpaceOnUse">
      <feOffset dy="3" input="SourceAlpha"/>
      <feGaussianBlur stdDeviation="3" result="blur-7"/>
      <feFlood flood-opacity="0.161"/>
      <feComposite operator="in" in2="blur-7"/>
      <feComposite in="SourceGraphic"/>
    </filter>
    <filter id="Path_3165" x="92.405" y="46.741" width="47.537" height="39.319" filterUnits="userSpaceOnUse">
      <feOffset dy="3" input="SourceAlpha"/>
      <feGaussianBlur stdDeviation="3" result="blur-8"/>
      <feFlood flood-opacity="0.161"/>
      <feComposite operator="in" in2="blur-8"/>
      <feComposite in="SourceGraphic"/>
    </filter>
    <filter id="Path_3166" x="102.656" y="26.42" width="56.344" height="33.997" filterUnits="userSpaceOnUse">
      <feOffset dy="3" input="SourceAlpha"/>
      <feGaussianBlur stdDeviation="3" result="blur-9"/>
      <feFlood flood-opacity="0.161"/>
      <feComposite operator="in" in2="blur-9"/>
      <feComposite in="SourceGraphic"/>
    </filter>
    <filter id="Path_3167" x="91" y="40.542" width="28.924" height="48.633" filterUnits="userSpaceOnUse">
      <feOffset dy="3" input="SourceAlpha"/>
      <feGaussianBlur stdDeviation="3" result="blur-10"/>
      <feFlood flood-opacity="0.161"/>
      <feComposite operator="in" in2="blur-10"/>
      <feComposite in="SourceGraphic"/>
    </filter>
    <filter id="Path_3168" x="95.187" y="32.165" width="32.092" height="39.319" filterUnits="userSpaceOnUse">
      <feOffset dy="3" input="SourceAlpha"/>
      <feGaussianBlur stdDeviation="3" result="blur-11"/>
      <feFlood flood-opacity="0.161"/>
      <feComposite operator="in" in2="blur-11"/>
      <feComposite in="SourceGraphic"/>
    </filter>
    <filter id="Path_3169" x="92.405" y="52.486" width="29.884" height="32.515" filterUnits="userSpaceOnUse">
      <feOffset dy="3" input="SourceAlpha"/>
      <feGaussianBlur stdDeviation="3" result="blur-12"/>
      <feFlood flood-opacity="0.161"/>
      <feComposite operator="in" in2="blur-12"/>
      <feComposite in="SourceGraphic"/>
    </filter>
    <filter id="Path_3170" x="92.284" y="39.786" width="39.621" height="35.781" filterUnits="userSpaceOnUse">
      <feOffset dy="3" input="SourceAlpha"/>
      <feGaussianBlur stdDeviation="3" result="blur-13"/>
      <feFlood flood-opacity="0.161"/>
      <feComposite operator="in" in2="blur-13"/>
      <feComposite in="SourceGraphic"/>
    </filter>
  </defs>
  <path id="Path_3152" data-name="Path 3152" class="cls-1" d="M11.247,19.844a.466.466,0,0,1,.233-.466,12.092,12.092,0,0,0,2.052.14,7.837,7.837,0,0,0,3.685-.793c2.425-1.353,3.218-3.778,3.218-6.81,0-4.851-2.425-8.4-8.442-8.4A6.416,6.416,0,0,0,9.8,3.8a1,1,0,0,0-.466.746c-.047,1.213-.093,3.965-.093,12.5,0,6.017-.047,10.028.047,12.687.14,1.912.466,2.332,1.959,2.705a21.186,21.186,0,0,0,3.172.466c.233.233.093,1.353-.047,1.539-1.539,0-5.224-.14-7.276-.14-2.425-.047-5.69.14-6.9.14a1.855,1.855,0,0,1-.047-1.493c1.119-.14,2.146-.28,2.8-.42,1.259-.373,1.539-.933,1.633-3.078.093-1.772.14-6.11.14-11.8,0-6.064.047-9.655-.047-11.288-.093-1.866-.42-2.472-1.912-2.8A23.864,23.864,0,0,0,.193,3.193,1.818,1.818,0,0,1,.286,1.7c.84,0,3.731.14,6.2.14,3.172,0,5.411-.093,8.536-.093,1.772,0,4.944.373,7,2.006a8.7,8.7,0,0,1,3.265,7.136,9.943,9.943,0,0,1-5.6,9.189,12.232,12.232,0,0,1-5.551,1.306,6.821,6.821,0,0,1-2.286-.28A3.9,3.9,0,0,1,11.247,19.844Z" transform="translate(167.989 34.093)"/>
  <path id="Path_3153" data-name="Path 3153" class="cls-1" d="M68.895,30A4.8,4.8,0,0,0,64.883,28a3.608,3.608,0,0,0-2.1.513,11.208,11.208,0,0,0-2.192,3.778c-.14.233-1.586-.56-1.539-1.073a10.164,10.164,0,0,1,1.213-3.125c2.286-1.586,5.6-2.892,6.9-2.892A6.036,6.036,0,0,1,72.393,28a10.177,10.177,0,0,1,1.213,5.224c0,2.752-.233,6.81-.233,8.909,0,1.119.42,2.1,2.006,2.1a4.625,4.625,0,0,0,1.866-.28,3.65,3.65,0,0,1-.233,1.586A6.254,6.254,0,0,1,72.673,47.4a2.693,2.693,0,0,1-2.705-1.353,3.906,3.906,0,0,1-.42-1.306c0-.047-.14-.093-.233-.047-2.705,1.679-4.9,2.752-6.25,2.752a4.439,4.439,0,0,1-2.892-1.306A6.825,6.825,0,0,1,58.4,41.525a8.039,8.039,0,0,1,.933-2.985c1.726-.933,7.976-2.425,9.982-3.4a.98.98,0,0,0,.326-.513,7.73,7.73,0,0,0,.047-1.446A5.291,5.291,0,0,0,68.895,30Zm.466,6.623c-1.959.7-5.317,1.726-6.25,2.425-.233.093-.513,1.119-.513,1.679a3.478,3.478,0,0,0,3.685,3.592,5.483,5.483,0,0,0,2.705-.84,1.444,1.444,0,0,0,.56-1.213c.093-1.119.093-4.524.093-5.411C69.641,36.768,69.5,36.581,69.361,36.628Z" transform="translate(135.143 21.554)"/>
  <path id="Path_3154" data-name="Path 3154" class="cls-1" d="M110.1,30.925a8.7,8.7,0,0,0,5.177,1.446c2.705,0,5.644-1.586,5.644-5.551,0-3.5-2.146-5.131-6.9-7.883-4.711-2.705-7.836-5.271-7.836-10.028C106.139,3.265,110.8,0,116.541,0c3.638,0,5.784.7,8.023.886a62.087,62.087,0,0,0-.886,7.276c-.14.327-1.353.327-1.539.047-.327-3.125-.793-4.571-2.052-5.411a7.3,7.3,0,0,0-4.291-1.119,5.4,5.4,0,0,0-5.551,5.364c0,2.939,1.353,4.478,3.592,6.017,2.1,1.353,4.758,2.612,6.53,3.685,2.752,1.726,5.037,3.965,5.037,7.789,0,5.177-4.291,9.748-11.707,9.748a19.047,19.047,0,0,1-7.6-1.633c-.466-.7-1.306-6.11-1.493-7.883.093-.327,1.353-.653,1.633-.466C107.259,27.566,108.285,29.665,110.1,30.925Z" transform="translate(108.944 35)"/>
  <path id="Path_3155" data-name="Path 3155" class="cls-1" d="M135.851,30.925a8.7,8.7,0,0,0,5.177,1.446c2.705,0,5.644-1.586,5.644-5.551,0-3.5-2.146-5.131-6.9-7.883-4.711-2.705-7.836-5.271-7.836-10.028C131.886,3.265,136.5,0,142.241,0c3.638,0,5.784.7,8.023.886a62.077,62.077,0,0,0-.886,7.276c-.14.327-1.353.327-1.539.047-.326-3.125-.793-4.571-2.052-5.411a7.3,7.3,0,0,0-4.291-1.119,5.4,5.4,0,0,0-5.551,5.364c0,2.939,1.353,4.478,3.592,6.017,2.1,1.353,4.758,2.612,6.53,3.685,2.752,1.726,5.037,3.965,5.037,7.789,0,5.177-4.291,9.748-11.707,9.748a19.047,19.047,0,0,1-7.6-1.633c-.466-.7-1.306-6.11-1.493-7.883.093-.327,1.353-.653,1.633-.466C133.005,27.566,134.031,29.665,135.851,30.925Z" transform="translate(95.232 35)"/>
  <path id="Path_3156" data-name="Path 3156" class="cls-1" d="M191.941,36.2c-.98,0-2.705-.14-5.364-.14-2.192,0-4.291.14-5.177.14-.233-.14-.233-1.306,0-1.539a13.106,13.106,0,0,0,2.286-.466c.7-.28.84-.7.933-1.912.093-1.306.093-4.8.093-7.7,0-2.052-.047-3.965-.047-4.991a1.616,1.616,0,0,0-.373-1.119,7.056,7.056,0,0,0-2.519-1.259,1.5,1.5,0,0,1,.233-1.259,24.529,24.529,0,0,0,6.857-1.539c0,2.379-.047,6.017-.047,9.235,0,2.892,0,6.437.047,8.816a1.6,1.6,0,0,0,1.119,1.772,16.737,16.737,0,0,0,2.192.42A2.511,2.511,0,0,1,191.941,36.2Zm-4.058-26.68a5.112,5.112,0,0,1-2.379.093,2.542,2.542,0,0,1-1.353-2.146,2.537,2.537,0,0,1,.28-1.539A4.4,4.4,0,0,1,186.95,5a2.373,2.373,0,0,1,1.539.42A2.65,2.65,0,0,1,189,6.959,3.305,3.305,0,0,1,187.883,9.524Z" transform="translate(65.325 32.332)"/>
  <path id="Path_3157" data-name="Path 3157" class="cls-1" d="M232.5,35.888c0,4.058-1.633,7.6-4.9,9.655a12.318,12.318,0,0,1-6.11,1.959C213.8,47.5,211,41.672,211,36.215a10.241,10.241,0,0,1,4.571-8.816,13.359,13.359,0,0,1,6.9-2.1C228.771,25.3,232.5,30.011,232.5,35.888ZM218.136,28.1c-1.353.886-2.705,2.8-2.705,6.81,0,6.2,3.125,10.448,7.323,10.448a4.613,4.613,0,0,0,3.218-1.119c1.4-1.306,2.006-3.4,2.006-6.623,0-6.11-2.845-10.215-7.323-10.215A4.383,4.383,0,0,0,218.136,28.1Z" transform="translate(46.634 21.501)"/>
  <path id="Path_3158" data-name="Path 3158" class="cls-1" d="M266.159,45.07c.746-.233,1.073-.933,1.119-1.866.093-1.633.093-5.317.093-8.629,0-2.052-.047-3.4-.093-4.2-.14-.746-.793-1.259-2.752-2.006a1.5,1.5,0,0,1,.28-1.213A21.262,21.262,0,0,0,271.29,25.2c.047.047.233.233.233.373-.047.56-.093,2.1-.093,2.985,0,.093.14.14.28.093,2.752-2.286,5.317-3.4,7.183-3.4A5.588,5.588,0,0,1,283.93,28a11.767,11.767,0,0,1,1.353,6.2c0,2.939,0,7.7.093,9.515a.97.97,0,0,0,.513.98,8.951,8.951,0,0,0,2.612.7,2.212,2.212,0,0,1-.14,1.539c-.746,0-2.332-.14-5.037-.14-2.425,0-3.965.093-5.224.14a2.187,2.187,0,0,1,0-1.539,12.468,12.468,0,0,0,2.146-.373c.746-.28.886-.793.933-2.146.047-2.939.093-8.256-.14-10.215a4.873,4.873,0,0,0-1.493-3.125,4.467,4.467,0,0,0-3.265-1.213A7.036,7.036,0,0,0,271.9,30c-.327.327-.513.793-.513,1.912,0,3.731,0,8.862.093,11.288.047,1.213.28,1.586.98,1.772a8.713,8.713,0,0,0,2.192.42,2.948,2.948,0,0,1-.14,1.539c-.793,0-2.285-.14-5.177-.14-2.565,0-4.478.14-5.131.14a1.781,1.781,0,0,1,0-1.539A11.429,11.429,0,0,0,266.159,45.07Z" transform="translate(15.42 21.554)"/>
  <g id="Group_176" data-name="Group 176" transform="translate(-25)">
    <g class="cls-17" transform="matrix(1, 0, 0, 1, 25, 0)">
      <rect id="Rectangle_157-2" data-name="Rectangle 157" class="cls-1" width="72" height="72" rx="36" transform="translate(88 16)"/>
    </g>
    <g id="Group_177" data-name="Group 177">
      <g class="cls-16" transform="matrix(1, 0, 0, 1, 25, 0)">
        <path id="Path_3159-2" data-name="Path 3159" class="cls-2" d="M76.469,38.5c-3.447,5.262-9.223,11.249-12.4,13.215,0,0-10.312-.3-12.67-1.421.877-.454,9.011-1.6,14.787-7.56A21.423,21.423,0,0,0,76.469,38.5Z" transform="translate(64.16 5.56)"/>
      </g>
      <g class="cls-15" transform="matrix(1, 0, 0, 1, 25, 0)">
        <path id="Path_3160-2" data-name="Path 3160" class="cls-2" d="M20.553,86.421,5.372,102.629h0a4.047,4.047,0,0,1-.272-.786L18.738,86.3A17.688,17.688,0,0,1,20.553,86.421Z" transform="translate(96.46 -27.78)"/>
      </g>
      <g class="cls-14" transform="matrix(1, 0, 0, 1, 25, 0)">
        <path id="Path_3161-2" data-name="Path 3161" class="cls-2" d="M4.372,137.7a3.455,3.455,0,0,0,.272.786L4.1,138Z" transform="translate(97.15 -63.64)"/>
      </g>
      <g class="cls-13" transform="matrix(1, 0, 0, 1, 25, 0)">
        <path id="Path_3162-2" data-name="Path 3162" class="cls-2" d="M52.307,83.268l-.363.393c-.6-.06-1.21-.121-1.845-.151l1.058-1.21Z" transform="translate(65.06 -24.99)"/>
      </g>
      <g class="cls-12" transform="matrix(1, 0, 0, 1, 25, 0)">
        <path id="Path_3163-2" data-name="Path 3163" class="cls-3" d="M2.926,134.2a4.059,4.059,0,0,0,.121,1.058l-.272.3-.575-.484Z" transform="translate(98.48 -61.2)"/>
      </g>
      <g class="cls-11" transform="matrix(1, 0, 0, 1, 25, 0)">
        <path id="Path_3164-2" data-name="Path 3164" class="cls-3" d="M42.585,75.1a23.139,23.139,0,0,0-3.78,1.6c-.091.06-.181.091-.272.151a7.94,7.94,0,0,0-1,.6,10.373,10.373,0,0,0-.181,1.028,16.312,16.312,0,0,0-2.752.3h-.03C34.3,78.819,38.563,75.13,42.585,75.1Z" transform="translate(75.91 -19.97)"/>
      </g>
      <g class="cls-10" transform="matrix(1, 0, 0, 1, 25, 0)">
        <path id="Path_3165-2" data-name="Path 3165" class="cls-3" d="M24.286,74.155A12.221,12.221,0,0,0,20.234,73.1c-.6-.06-1.21-.121-1.845-.151L4.721,88.519A4.06,4.06,0,0,1,4.6,87.461L16.484,72.946h0a5.616,5.616,0,0,1,.181-1.028c.333-.212.665-.423,1-.6.091-.06.181-.091.272-.151a23.138,23.138,0,0,1,3.78-1.6,5.537,5.537,0,0,1,1.421.151c7.348,1.724,10.735,1.784,10.947-2.51C34.9,73.52,26.161,73.943,24.286,74.155Z" transform="translate(96.8 -14.46)"/>
      </g>
      <g class="cls-9" transform="matrix(1, 0, 0, 1, 25, 0)">
        <path id="Path_3166-2" data-name="Path 3166" class="cls-4" d="M76.844,0a32.143,32.143,0,0,0-4.778,5.685C60.968,21.107,46.09,12.7,38.5,16c.847-3.115,1.452-5.655,5.05-8.407h0C51.382,2.3,64.93,8.044,76.844,0Z" transform="translate(73.16 32.42)"/>
      </g>
      <g class="cls-8" transform="matrix(1, 0, 0, 1, 25, 0)">
        <path id="Path_3167-2" data-name="Path 3167" class="cls-3" d="M10.825,54.139a12.167,12.167,0,0,1-1.331,4.99,7.124,7.124,0,0,1-.7,1.058c-4.385,5.564-6.532,8.921-7.2,11.34a5.482,5.482,0,0,0-.242,1.633,4.059,4.059,0,0,0,.121,1.058A3.453,3.453,0,0,0,1.753,75a9.843,9.843,0,0,0,1.663,2.328A6.27,6.27,0,0,1,.483,73.916a4.283,4.283,0,0,1-.212-.665c-.544-2-.484-4.99.968-9.526.423-1.3.937-2.691,1.6-4.234,4.9-3.266,7.378-10.523,7.348-12.791A26.432,26.432,0,0,1,10.825,54.139Z" transform="translate(100.05 -0.16)"/>
      </g>
      <g class="cls-7" transform="matrix(1, 0, 0, 1, 25, 0)">
        <path id="Path_3168-2" data-name="Path 3168" class="cls-4" d="M13.8,40.319C15.705,34.876,10.05,23.566,27.892,19,17.338,25.078,24.6,29.1,13.8,40.319Z" transform="translate(90.39 19.17)"/>
      </g>
      <g class="cls-6" transform="matrix(1, 0, 0, 1, 25, 0)">
        <path id="Path_3169-2" data-name="Path 3169" class="cls-4" d="M16.484,86.2h0L4.6,100.715a6.886,6.886,0,0,1,.242-1.633l9.737-12.731c-.272.03-.544.091-.816.121h-.03A20.2,20.2,0,0,1,16.484,86.2Z" transform="translate(96.8 -27.71)"/>
      </g>
      <g class="cls-5" transform="matrix(1, 0, 0, 1, 25, 0)">
        <path id="Path_3170-2" data-name="Path 3170" class="cls-4" d="M25.821,52.607a22.5,22.5,0,0,0-8.195,2.54c-.091.06-.181.091-.272.151a7.94,7.94,0,0,0-1,.6,10.374,10.374,0,0,0-.181,1.028,16.31,16.31,0,0,0-2.752.3h-.03a4.822,4.822,0,0,0-.907.181,13.752,13.752,0,0,0-2.6.756c-4.536,2.087-5.02,3.084-5.685,3.81,3.417-6.32,7.348-8.558,9.616-9.586.333-.151.6-.272.847-.363l.363-.272h0c2.026-1.512,4.173-2.661,5.836-3.81a7.82,7.82,0,0,0,1.966-1.724.106.106,0,0,0,.03-.06,3.492,3.492,0,0,0,.786-1.966c1.149,2.54-4.385,4.869-6.592,9.707a1.474,1.474,0,0,1-.091.212c.091-.03.151-.06.242-.091a21.1,21.1,0,0,1,4.838-1.3A23.565,23.565,0,0,1,25.821,52.607Z" transform="translate(97.08 1.59)"/>
      </g>
    </g>
  </g>
</svg>
